<svg height="512pt" viewBox="-4 0 511 512" width="512pt" xmlns="http://www.w3.org/2000/svg"><path d="m141.742188 512c-4.519532 0-9.035157-1.722656-12.484376-5.171875l-70.621093-70.621094c-6.894531-6.898437-6.894531-18.070312 0-24.964843 6.898437-6.894532 18.070312-6.898438 24.964843 0l70.621094 70.621093c6.898438 6.894531 6.898438 18.070313 0 24.964844-3.445312 3.449219-7.964844 5.171875-12.480468 5.171875zm0 0"/><path d="m141.742188 423.722656c-4.519532 0-9.035157-1.722656-12.484376-5.171875l-17.65625-17.65625c-6.894531-6.894531-6.894531-18.070312 0-24.964843 6.898438-6.890626 18.070313-6.894532 24.964844 0l17.65625 17.65625c6.898438 6.898437 6.898438 18.070312 0 24.964843-3.445312 3.449219-7.964844 5.171875-12.480468 5.171875zm0 0"/><path d="m230.015625 423.722656c-4.515625 0-9.035156-1.722656-12.480469-5.171875l-70.621094-70.621093c-6.898437-6.894532-6.898437-18.070313 0-24.964844 6.894532-6.894532 18.070313-6.894532 24.964844 0l70.621094 70.621094c6.894531 6.898437 6.894531 18.070312 0 24.964843-3.449219 3.449219-7.964844 5.171875-12.484375 5.171875zm0 0"/><path d="m353.601562 0c-82.75 0-150.066406 67.328125-150.066406 150.070312 0 32.761719 10.671875 63.007813 28.558594 87.714844l-226.421875 226.421875c-6.894531 6.898438-6.894531 18.070313 0 24.964844 3.449219 3.449219 7.964844 5.171875 12.484375 5.171875 4.515625 0 9.035156-1.722656 12.480469-5.171875l225.355469-225.355469c26.269531 22.578125 60.335937 36.320313 97.609374 36.320313 82.75 0 150.070313-67.328125 150.070313-150.066407 0-82.742187-67.320313-150.070312-150.070313-150.070312zm0 264.828125c-63.273437 0-114.757812-51.484375-114.757812-114.757813 0-63.277343 51.484375-114.761718 114.757812-114.761718 63.277344 0 114.761719 51.484375 114.761719 114.761718 0 63.273438-51.484375 114.757813-114.761719 114.757813zm0 0"/></svg>